<mxfile host="65bd71144e">
    <diagram id="NBj4y6Ug5CM0ARnrZ2Rh" name="Page-1">
        <mxGraphModel dx="1883" dy="883" grid="0" gridSize="10" guides="1" tooltips="1" connect="1" arrows="1" fold="1" page="0" pageScale="1" pageWidth="1100" pageHeight="850" background="none" math="0" shadow="0">
            <root>
                <mxCell id="0"/>
                <mxCell id="1" parent="0"/>
                <mxCell id="2" value="MySQLScriptsExecutor" style="swimlane;fontStyle=1;align=center;verticalAlign=top;childLayout=stackLayout;horizontal=1;startSize=26;horizontalStack=0;resizeParent=1;resizeParentMax=0;resizeLast=0;collapsible=1;marginBottom=0;fillColor=#76608a;fontColor=#ffffff;strokeColor=#432D57;" parent="1" vertex="1">
                    <mxGeometry x="-451" y="-108" width="620" height="320" as="geometry"/>
                </mxCell>
                <mxCell id="3" value="-  __DB_HOST : string" style="text;strokeColor=none;fillColor=none;align=left;verticalAlign=top;spacingLeft=4;spacingRight=4;overflow=hidden;rotatable=0;points=[[0,0.5],[1,0.5]];portConstraint=eastwest;" parent="2" vertex="1">
                    <mxGeometry y="26" width="620" height="26" as="geometry"/>
                </mxCell>
                <mxCell id="6" value="-  __DB_PORT : int" style="text;strokeColor=none;fillColor=none;align=left;verticalAlign=top;spacingLeft=4;spacingRight=4;overflow=hidden;rotatable=0;points=[[0,0.5],[1,0.5]];portConstraint=eastwest;" parent="2" vertex="1">
                    <mxGeometry y="52" width="620" height="26" as="geometry"/>
                </mxCell>
                <mxCell id="15" value="- __DB_USER : string" style="text;strokeColor=none;fillColor=none;align=left;verticalAlign=top;spacingLeft=4;spacingRight=4;overflow=hidden;rotatable=0;points=[[0,0.5],[1,0.5]];portConstraint=eastwest;" parent="2" vertex="1">
                    <mxGeometry y="78" width="620" height="26" as="geometry"/>
                </mxCell>
                <mxCell id="16" value="- __DB_PASSWORD : string" style="text;strokeColor=none;fillColor=none;align=left;verticalAlign=top;spacingLeft=4;spacingRight=4;overflow=hidden;rotatable=0;points=[[0,0.5],[1,0.5]];portConstraint=eastwest;" vertex="1" parent="2">
                    <mxGeometry y="104" width="620" height="26" as="geometry"/>
                </mxCell>
                <mxCell id="17" value="- __DB_NAME : string" style="text;strokeColor=none;fillColor=none;align=left;verticalAlign=top;spacingLeft=4;spacingRight=4;overflow=hidden;rotatable=0;points=[[0,0.5],[1,0.5]];portConstraint=eastwest;" vertex="1" parent="2">
                    <mxGeometry y="130" width="620" height="26" as="geometry"/>
                </mxCell>
                <mxCell id="18" value="- __CONNECTION : MySQLConnection" style="text;strokeColor=none;fillColor=none;align=left;verticalAlign=top;spacingLeft=4;spacingRight=4;overflow=hidden;rotatable=0;points=[[0,0.5],[1,0.5]];portConstraint=eastwest;" vertex="1" parent="2">
                    <mxGeometry y="156" width="620" height="26" as="geometry"/>
                </mxCell>
                <mxCell id="4" value="" style="line;strokeWidth=1;fillColor=none;align=left;verticalAlign=middle;spacingTop=-1;spacingLeft=3;spacingRight=3;rotatable=0;labelPosition=right;points=[];portConstraint=eastwest;strokeColor=inherit;" parent="2" vertex="1">
                    <mxGeometry y="182" width="620" height="8" as="geometry"/>
                </mxCell>
                <mxCell id="19" value="-  __startDatabaseConnection(cls : this class) : None" style="text;strokeColor=none;fillColor=none;align=left;verticalAlign=top;spacingLeft=4;spacingRight=4;overflow=hidden;rotatable=0;points=[[0,0.5],[1,0.5]];portConstraint=eastwest;" vertex="1" parent="2">
                    <mxGeometry y="190" width="620" height="26" as="geometry"/>
                </mxCell>
                <mxCell id="5" value="-  __endDatabaseConnection(cls : this class) : None" style="text;strokeColor=none;fillColor=none;align=left;verticalAlign=top;spacingLeft=4;spacingRight=4;overflow=hidden;rotatable=0;points=[[0,0.5],[1,0.5]];portConstraint=eastwest;" parent="2" vertex="1">
                    <mxGeometry y="216" width="620" height="26" as="geometry"/>
                </mxCell>
                <mxCell id="20" value="+ getDatabaseConnectionStatus(cls : this class) : Bool" style="text;strokeColor=none;fillColor=none;align=left;verticalAlign=top;spacingLeft=4;spacingRight=4;overflow=hidden;rotatable=0;points=[[0,0.5],[1,0.5]];portConstraint=eastwest;" vertex="1" parent="2">
                    <mxGeometry y="242" width="620" height="26" as="geometry"/>
                </mxCell>
                <mxCell id="21" value="+ runScriptToQueryDatabase(cls : this class, script : string, params : tuple) : list&lt;dictionary&gt;" style="text;strokeColor=none;fillColor=none;align=left;verticalAlign=top;spacingLeft=4;spacingRight=4;overflow=hidden;rotatable=0;points=[[0,0.5],[1,0.5]];portConstraint=eastwest;" vertex="1" parent="2">
                    <mxGeometry y="268" width="620" height="26" as="geometry"/>
                </mxCell>
                <mxCell id="22" value="+ runScriptToModifyDatabase(cls : this class, script : string, params : tuple) : Bool" style="text;strokeColor=none;fillColor=none;align=left;verticalAlign=top;spacingLeft=4;spacingRight=4;overflow=hidden;rotatable=0;points=[[0,0.5],[1,0.5]];portConstraint=eastwest;" vertex="1" parent="2">
                    <mxGeometry y="294" width="620" height="26" as="geometry"/>
                </mxCell>
                <mxCell id="7" value="UCUSnowSportsSchoolQuerier" style="swimlane;fontStyle=1;align=center;verticalAlign=top;childLayout=stackLayout;horizontal=1;startSize=26;horizontalStack=0;resizeParent=1;resizeParentMax=0;resizeLast=0;collapsible=1;marginBottom=0;fillColor=#a0522d;fontColor=#ffffff;strokeColor=#6D1F00;" parent="1" vertex="1">
                    <mxGeometry x="74" y="363" width="342" height="60" as="geometry"/>
                </mxCell>
                <mxCell id="10" value="" style="line;strokeWidth=1;fillColor=none;align=left;verticalAlign=middle;spacingTop=-1;spacingLeft=3;spacingRight=3;rotatable=0;labelPosition=right;points=[];portConstraint=eastwest;strokeColor=inherit;" parent="7" vertex="1">
                    <mxGeometry y="26" width="342" height="8" as="geometry"/>
                </mxCell>
                <mxCell id="11" value="+ method(type): type" style="text;strokeColor=none;fillColor=none;align=left;verticalAlign=top;spacingLeft=4;spacingRight=4;overflow=hidden;rotatable=0;points=[[0,0.5],[1,0.5]];portConstraint=eastwest;" parent="7" vertex="1">
                    <mxGeometry y="34" width="342" height="26" as="geometry"/>
                </mxCell>
                <mxCell id="14" value="&lt;div style=&quot;text-align: justify;&quot;&gt;RESPONSABILIDAD:&lt;/div&gt;&lt;div style=&quot;text-align: justify;&quot;&gt;&lt;span style=&quot;background-color: initial;&quot;&gt;Conectarse a la base de datos y ejecutar los scripts MySQL que le llegan.&lt;/span&gt;&lt;/div&gt;&lt;div style=&quot;text-align: justify;&quot;&gt;&lt;span style=&quot;background-color: initial;&quot;&gt;Si ejecuta scripts para consultar datos de la base, entonces retorna los datos consultados.&lt;/span&gt;&lt;/div&gt;&lt;div style=&quot;text-align: justify;&quot;&gt;&lt;span style=&quot;background-color: initial;&quot;&gt;Si ejecuta scripts para modificar la base, entonces retorna el resultado de la operación (exitosa/no exitosa).&lt;br&gt;&lt;/span&gt;&lt;/div&gt;&lt;div style=&quot;text-align: justify;&quot;&gt;&lt;span style=&quot;background-color: initial;&quot;&gt;&lt;br&gt;&lt;/span&gt;&lt;/div&gt;&lt;div style=&quot;text-align: justify;&quot;&gt;NO DEPENDE DE NINGUNA CLASE (CREADA MANUALMENTE) PARA REALIZAR SU RESPONSABILIDAD.&lt;/div&gt;" style="rounded=0;whiteSpace=wrap;html=1;fillColor=#76608a;fontColor=#ffffff;strokeColor=#432D57;" parent="1" vertex="1">
                    <mxGeometry x="-357" y="-335" width="423" height="167" as="geometry"/>
                </mxCell>
                <mxCell id="23" value="&lt;div style=&quot;text-align: justify;&quot;&gt;RESPONSABILIDAD:&lt;/div&gt;&lt;div style=&quot;text-align: justify;&quot;&gt;Realiza formateo de data a una lista de diccionarios.&lt;br&gt;&lt;/div&gt;&lt;div style=&quot;text-align: justify;&quot;&gt;&lt;span style=&quot;background-color: initial;&quot;&gt;&lt;br&gt;&lt;/span&gt;&lt;/div&gt;&lt;div style=&quot;text-align: justify;&quot;&gt;NO DEPENDE DE NINGUNA CLASE (CREADA MANUALMENTE) PARA REALIZAR SU RESPONSABILIDAD.&lt;/div&gt;" style="rounded=0;whiteSpace=wrap;html=1;fillColor=#6d8764;fontColor=#ffffff;strokeColor=#3A5431;" vertex="1" parent="1">
                    <mxGeometry x="325" y="-271" width="423" height="167" as="geometry"/>
                </mxCell>
                <mxCell id="24" value="DataFormatter" style="swimlane;fontStyle=1;align=center;verticalAlign=top;childLayout=stackLayout;horizontal=1;startSize=26;horizontalStack=0;resizeParent=1;resizeParentMax=0;resizeLast=0;collapsible=1;marginBottom=0;fillColor=#6d8764;fontColor=#ffffff;strokeColor=#3A5431;" vertex="1" parent="1">
                    <mxGeometry x="292" y="-47" width="419" height="112" as="geometry"/>
                </mxCell>
                <mxCell id="27" value="" style="line;strokeWidth=1;fillColor=none;align=left;verticalAlign=middle;spacingTop=-1;spacingLeft=3;spacingRight=3;rotatable=0;labelPosition=right;points=[];portConstraint=eastwest;strokeColor=inherit;" vertex="1" parent="24">
                    <mxGeometry y="26" width="419" height="8" as="geometry"/>
                </mxCell>
                <mxCell id="28" value="- __timedeltaToHMS(cls : this class, tdelta : timedelta) : string" style="text;strokeColor=none;fillColor=none;align=left;verticalAlign=top;spacingLeft=4;spacingRight=4;overflow=hidden;rotatable=0;points=[[0,0.5],[1,0.5]];portConstraint=eastwest;" vertex="1" parent="24">
                    <mxGeometry y="34" width="419" height="26" as="geometry"/>
                </mxCell>
                <mxCell id="30" value="- __dateToString(cls : this class, dateObj : date) : string" style="text;strokeColor=none;fillColor=none;align=left;verticalAlign=top;spacingLeft=4;spacingRight=4;overflow=hidden;rotatable=0;points=[[0,0.5],[1,0.5]];portConstraint=eastwest;" vertex="1" parent="24">
                    <mxGeometry y="60" width="419" height="26" as="geometry"/>
                </mxCell>
                <mxCell id="31" value="+ formatData(cls : this class, data : list&lt;dictionary&gt;) : list&lt;dictionary&gt;" style="text;strokeColor=none;fillColor=none;align=left;verticalAlign=top;spacingLeft=4;spacingRight=4;overflow=hidden;rotatable=0;points=[[0,0.5],[1,0.5]];portConstraint=eastwest;" vertex="1" parent="24">
                    <mxGeometry y="86" width="419" height="26" as="geometry"/>
                </mxCell>
                <mxCell id="29" value="DEPENDE" style="endArrow=open;startArrow=none;endFill=0;startFill=0;endSize=8;html=1;verticalAlign=bottom;dashed=1;labelBackgroundColor=none;exitX=0;exitY=0;exitDx=0;exitDy=0;entryX=0.502;entryY=1.147;entryDx=0;entryDy=0;entryPerimeter=0;" edge="1" parent="1" source="7" target="22">
                    <mxGeometry x="-0.2069" y="-19" width="160" relative="1" as="geometry">
                        <mxPoint x="324" y="44" as="sourcePoint"/>
                        <mxPoint x="484" y="44" as="targetPoint"/>
                        <mxPoint as="offset"/>
                    </mxGeometry>
                </mxCell>
                <mxCell id="32" value="&lt;div style=&quot;text-align: justify;&quot;&gt;RESPONSABILIDAD:&lt;/div&gt;&lt;div style=&quot;text-align: justify;&quot;&gt;Enviar consultas MySQL a MySQLScriptsExecutor para interactuar la base de datos &quot;ucu_snow_sports&quot;.&lt;/div&gt;&lt;div style=&quot;text-align: justify;&quot;&gt;Puede retornar la información consultada o retornar el resultado de una operación de modificación a la base.&lt;br&gt;&lt;/div&gt;&lt;div style=&quot;text-align: justify;&quot;&gt;&lt;span style=&quot;background-color: initial;&quot;&gt;&lt;br&gt;&lt;/span&gt;&lt;/div&gt;&lt;div style=&quot;text-align: justify;&quot;&gt;DEPENDE DE LAS SIGUIENTES CLASES CREADAS MANUALMENTE:&lt;/div&gt;&lt;div style=&quot;text-align: justify;&quot;&gt;MySQLScriptsExecutor: para ejecutar los scripts&lt;/div&gt;&lt;div style=&quot;text-align: justify;&quot;&gt;DataFormatter: para formatear la data obtenida de MySQLScriptsExecutor&lt;/div&gt;" style="rounded=0;whiteSpace=wrap;html=1;fillColor=#a0522d;fontColor=#ffffff;strokeColor=#6D1F00;" vertex="1" parent="1">
                    <mxGeometry x="30" y="464" width="423" height="167" as="geometry"/>
                </mxCell>
                <mxCell id="33" value="DEPENDE" style="endArrow=open;startArrow=none;endFill=0;startFill=0;endSize=8;html=1;verticalAlign=bottom;dashed=1;labelBackgroundColor=none;exitX=1;exitY=0;exitDx=0;exitDy=0;entryX=0.456;entryY=1.181;entryDx=0;entryDy=0;entryPerimeter=0;" edge="1" parent="1" source="7" target="31">
                    <mxGeometry x="-0.2069" y="-19" width="160" relative="1" as="geometry">
                        <mxPoint x="473.76000000000045" y="321.18" as="sourcePoint"/>
                        <mxPoint x="260.0000000000002" y="174.00200000000012" as="targetPoint"/>
                        <mxPoint as="offset"/>
                    </mxGeometry>
                </mxCell>
            </root>
        </mxGraphModel>
    </diagram>
</mxfile>